<svg width="360" height="51" viewBox="0 0 360 51" fill="none" xmlns="http://www.w3.org/2000/svg">
<path d="M0.846924 8.54898C0.846924 3.83196 4.67082 0.00805664 9.38784 0.00805664H43.642C48.359 0.00805664 52.1829 3.83195 52.1829 8.54897V42.0245C52.1829 46.7415 48.359 50.5654 43.6419 50.5654H9.38783C4.67082 50.5654 0.846924 46.7415 0.846924 42.0245V8.54898Z" fill="#2684FC"/>
<path d="M0.846924 10.9205H52.1829V12.7734H0.846924V10.9205Z" fill="#5BA3FF"/>
<path d="M12.142 5.86359C12.142 7.28432 10.9902 8.43606 9.56951 8.43606C8.14877 8.43606 6.99704 7.28432 6.99704 5.86359C6.99704 4.44285 8.14877 3.29112 9.56951 3.29112C10.9902 3.29112 12.142 4.44285 12.142 5.86359Z" fill="#FFF7F7"/>
<path d="M46.0327 5.86359C46.0327 7.28432 44.881 8.43606 43.4603 8.43606C42.0395 8.43606 40.8878 7.28432 40.8878 5.86359C40.8878 4.44285 42.0395 3.29112 43.4603 3.29112C44.881 3.29112 46.0327 4.44285 46.0327 5.86359Z" fill="#FFF7F7"/>
<path d="M39.5062 50.5654C30.8239 50.5654 22.1424 50.5654 13.4602 50.5654C13.423 50.4835 13.3358 50.4875 13.2687 50.4634C12.5004 50.1825 12.0359 49.5596 12.0133 48.7689C11.9906 47.9998 12.4463 47.3328 13.1984 47.0253C13.2703 46.9956 13.3762 46.9988 13.3867 46.8591C12.536 46.5637 12.0149 45.9842 12.0189 45.0594C12.0238 44.1419 12.5634 43.5752 13.4828 43.2436C12.54 42.8968 12.0036 42.3173 12.0197 41.3789C12.0367 40.4324 12.6046 39.8769 13.5119 39.5872C12.4923 39.2131 12.002 38.599 12.0108 37.7513C12.0197 36.886 12.5279 36.2727 13.545 35.9331C12.5699 35.6441 11.9906 35.0461 12.0238 34.0282C12.0537 33.1139 12.6014 32.5696 13.4594 32.3007C12.4818 31.8103 12.0302 31.1713 12.1272 30.3862C12.2613 29.3001 12.9367 28.7695 14.0435 28.6523C13.9247 28.5656 13.8472 28.5118 13.7736 28.454C13.0667 27.8969 12.8801 26.936 13.3059 26.1413C13.5305 25.7223 13.9077 25.4895 14.2979 25.2639C14.6785 25.2029 15.0598 25.1524 15.4621 25.2326C15.0299 24.6996 14.9539 24.1144 15.0234 23.4939C15.2173 23.0628 15.4387 22.6558 15.8693 22.4038C16.56 22 17.2378 22.0763 17.91 22.4471C17.9229 22.4528 17.9366 22.4584 17.9496 22.464C17.9447 22.4495 17.9399 22.4359 17.9358 22.4214C17.7217 21.9069 17.691 21.3851 17.8712 20.8545C17.9043 20.7999 17.9399 20.7461 17.9714 20.6907C18.4626 19.827 19.4377 19.5059 20.3578 19.9009C20.6269 20.0164 20.8305 20.2195 21.0542 20.4258C21.0769 19.2402 21.4356 18.5876 22.2459 18.3299C23.3567 17.9767 24.1298 18.4302 24.6558 19.4401C24.8747 18.3628 25.4749 17.7632 26.3862 17.6957C26.892 17.658 27.3395 17.8161 27.7257 18.1445C28.1151 18.4752 28.2953 18.9175 28.3704 19.4473C28.965 18.423 29.7034 18.0433 30.6009 18.2673C31.509 18.4937 31.942 19.1655 31.9768 20.4331C32.3048 20.0815 32.6715 19.8342 33.1336 19.7596C33.9811 19.6223 34.6323 19.9755 35.1598 20.8553C35.3408 21.3859 35.3068 21.9077 35.0952 22.4222C35.0903 22.4367 35.0863 22.4503 35.0814 22.4648C35.0944 22.4592 35.1081 22.4536 35.121 22.4479C35.794 22.0763 36.471 22.0024 37.1617 22.4046C37.5931 22.6558 37.8129 23.0652 38.0076 23.4947C38.0795 24.1224 37.9955 24.7133 37.5632 25.2391C37.9769 25.1499 38.3541 25.2094 38.7314 25.2647C38.8219 25.3185 38.9108 25.3747 39.0037 25.4261C39.8027 25.8676 40.1501 26.8052 39.8374 27.6601C39.6847 28.0783 39.3923 28.3794 39.0182 28.633C40.3286 28.9798 40.802 29.4237 40.907 30.3862C40.9935 31.1721 40.5524 31.8062 39.57 32.3015C40.4304 32.568 40.9765 33.1131 41.008 34.0274C41.0428 35.0469 40.4595 35.6409 39.4876 35.9331C40.4393 36.2502 40.9394 36.7832 41.0008 37.5603C41.0848 38.6231 40.5265 39.2548 39.5304 39.5864C40.5185 39.9725 40.9668 40.4806 41.0056 41.2841C41.0541 42.3012 40.5063 42.9097 39.5005 43.2484C40.4643 43.5471 41.0105 44.1266 41.0096 45.0771C41.0088 46.0396 40.4417 46.6119 39.4957 46.9041C39.65 46.9603 39.7389 46.9932 39.8277 47.0261C41.0807 47.4925 41.4241 49.098 40.4781 50.0332C40.201 50.3061 39.8487 50.4225 39.5062 50.5654ZM26.509 39.6602C27.0721 39.6763 27.6296 39.6193 28.1797 39.5141C29.1896 39.3207 30.1736 39.0493 31.0105 38.416C31.5058 38.0419 31.8685 37.5787 31.9517 36.9405C32.039 36.2791 32.1787 36.1314 32.8477 36.0037C33.5247 35.8745 34.1427 35.6144 34.705 35.2195C36.8248 33.7304 37.0745 30.9417 35.2164 29.1564C33.9633 27.9523 32.4211 27.6288 30.735 27.8632C29.5612 28.0262 28.4625 28.4363 27.4009 28.9413C26.8007 29.227 26.2368 29.2351 25.6373 28.9453C24.8036 28.5431 23.9392 28.2132 23.0327 28.0029C21.274 27.5943 19.6211 27.7412 18.1281 28.8666C16.5705 30.041 16.1068 32.1932 17.09 33.8677C17.7831 35.0477 18.8374 35.7316 20.1712 35.9973C20.6123 36.0856 20.9977 36.2181 21.0437 36.7399C21.1245 37.6654 21.6715 38.2651 22.4397 38.6929C23.7025 39.3969 25.0815 39.6377 26.509 39.6602Z" fill="#C76D5C"/>
<path d="M26.509 39.6602C25.0815 39.6377 23.7025 39.3969 22.4406 38.6937C21.6723 38.2658 21.1253 37.6662 21.0445 36.7406C20.9993 36.2189 20.6139 36.0864 20.172 35.9981C18.8374 35.7324 17.7831 35.0485 17.0908 33.8684C16.1076 32.1939 16.5721 30.0418 18.1289 28.8674C19.6219 27.742 21.2748 27.5951 23.0335 28.0037C23.9392 28.214 24.8044 28.5431 25.6381 28.9461C26.2376 29.2359 26.8015 29.2278 27.4017 28.9421C28.4633 28.4371 29.5612 28.0269 30.7359 27.864C32.4219 27.6296 33.9649 27.9531 35.2172 29.1572C37.0745 30.9425 36.8256 33.7312 34.7058 35.2203C34.1435 35.6152 33.5246 35.8753 32.8485 36.0045C32.1787 36.1322 32.039 36.2799 31.9525 36.9413C31.8685 37.5795 31.5058 38.0419 31.0113 38.4168C30.1744 39.0501 29.1904 39.3214 28.1805 39.5149C27.6296 39.6192 27.0721 39.6763 26.509 39.6602ZM27.2038 37.2183C27.7346 37.2062 28.1014 37.0489 28.389 36.731C28.5772 36.5231 28.5748 36.2494 28.3914 36.0647C28.1991 35.8705 27.9778 35.8552 27.7483 35.9989C27.6312 36.072 27.5358 36.1819 27.3888 36.2044C27.2418 36.2269 27.0487 36.2775 27.0342 36.0679C27.0228 35.9026 26.8831 35.6465 27.2192 35.5831C27.4195 35.5454 27.6158 35.4755 27.7798 35.3495C27.9818 35.1946 28.0497 34.9867 27.9333 34.7531C27.821 34.5267 27.6191 34.4015 27.3759 34.493C26.8079 34.7081 26.2537 34.725 25.6793 34.5147C25.416 34.4183 25.189 34.5291 25.0823 34.8036C24.9741 35.0822 25.0944 35.2853 25.3384 35.4177C25.4693 35.4884 25.6139 35.5566 25.7585 35.5743C26.1301 35.62 26.034 35.9018 25.9912 36.0832C25.9387 36.304 25.7205 36.2357 25.563 36.1787C25.4653 36.1434 25.3845 36.0639 25.2948 36.0061C25.0589 35.8536 24.7923 35.8777 24.6275 36.0784C24.4417 36.3039 24.4619 36.5359 24.6541 36.7438C24.9369 37.0497 25.2972 37.2464 25.7117 37.2046C26.2457 37.1508 26.7732 36.9935 27.2038 37.2183ZM20.1866 32.9405H20.1858C20.1858 33.1211 20.1736 33.3033 20.1882 33.4823C20.2124 33.7729 20.4233 33.9881 20.6818 33.9736C20.9613 33.9584 21.1544 33.8066 21.1698 33.5193C21.1891 33.1484 21.1908 32.7751 21.1706 32.4051C21.1552 32.1233 20.9743 31.9611 20.6883 31.9467C20.4265 31.9339 20.2165 32.1377 20.1898 32.4299C20.1745 32.5985 20.1866 32.7703 20.1866 32.9405ZM32.8396 32.971C32.8404 32.971 32.8412 32.971 32.842 32.971C32.842 32.7904 32.8549 32.6082 32.8388 32.4291C32.8129 32.1369 32.6021 31.9339 32.3395 31.9475C32.0543 31.9628 31.8733 32.1241 31.8588 32.4075C31.8402 32.7783 31.8418 33.1516 31.8604 33.5225C31.875 33.8123 32.0721 33.972 32.3492 33.9712C32.6287 33.9704 32.8056 33.7946 32.8363 33.5136C32.8557 33.3338 32.8396 33.1516 32.8396 32.971Z" fill="#FAC3AB"/>
<path d="M13.9094 19.7507C14.2204 19.7162 14.504 19.819 14.7875 19.9233C15.7974 20.2942 16.8072 20.6626 17.8712 20.8553C17.691 21.3859 17.7217 21.9077 17.9358 22.4222C17.9269 22.4311 17.9189 22.4391 17.91 22.4479C17.2378 22.0762 16.56 22.0008 15.8693 22.4046C15.4387 22.6566 15.2173 23.0644 15.0234 23.4947C14.9677 23.404 14.9224 23.3044 14.8538 23.225C14.4619 22.7722 14.1978 22.2553 14.0346 21.6837C13.8544 21.0471 13.8552 20.4009 13.9094 19.7507Z" fill="#FAC3AB"/>
<path d="M35.159 20.8553C36.223 20.6626 37.2336 20.2942 38.2427 19.9233C38.5262 19.819 38.8098 19.7162 39.1208 19.7507C39.1208 19.8679 39.1127 19.9859 39.1232 20.1023C39.2145 21.1017 39.0029 22.0249 38.4527 22.8726C38.3129 23.0877 38.0948 23.245 38.0068 23.4939C37.8121 23.0636 37.5923 22.655 37.1609 22.4038C36.4702 22.0016 35.7924 22.0754 35.1202 22.4471C35.1113 22.4383 35.1032 22.4303 35.0944 22.4222C35.306 21.9077 35.34 21.3859 35.159 20.8553Z" fill="#FAC3AB"/>
<path d="M38.0068 23.4947C38.0948 23.245 38.3137 23.0885 38.4527 22.8734C39.0029 22.0249 39.2145 21.1017 39.1232 20.1031C39.1127 19.9867 39.1208 19.8687 39.1208 19.7515C39.751 19.8173 40.2454 20.1946 40.3746 20.7838C40.7463 22.4856 40.23 24.1746 38.788 25.2358C38.771 25.2479 38.75 25.2551 38.7306 25.2647C38.3533 25.2101 37.9752 25.1499 37.5624 25.239C37.9946 24.7124 38.0787 24.1216 38.0068 23.4947Z" fill="#E2B098"/>
<path d="M13.9094 19.7507C13.8552 20.4009 13.8544 21.0463 14.0354 21.6821C14.1986 22.2545 14.4628 22.7714 14.8546 23.2234C14.9232 23.3028 14.9685 23.4032 15.0242 23.4931C14.9547 24.1136 15.0307 24.6988 15.4629 25.2326C15.0606 25.1523 14.6793 25.2029 14.2988 25.2639C13.234 24.5158 12.6668 23.4843 12.5602 22.2031C12.5238 21.7688 12.5327 21.3305 12.6216 20.8986C12.7541 20.2548 13.2372 19.8206 13.9094 19.7507Z" fill="#E2B098"/>
<path d="M17.9358 22.4222C17.9407 22.4367 17.9455 22.4503 17.9496 22.4648C17.9366 22.4592 17.9229 22.4535 17.91 22.4479C17.9189 22.4391 17.9277 22.4303 17.9358 22.4222Z" fill="#FAC3AB"/>
<path d="M35.1202 22.4471C35.1073 22.4527 35.0935 22.4584 35.0806 22.464C35.0855 22.4503 35.0903 22.4359 35.0944 22.4214C35.1032 22.4303 35.1113 22.4391 35.1202 22.4471Z" fill="#FAC3AB"/>
<path d="M27.2038 37.2183C26.7732 36.9935 26.2457 37.15 25.7108 37.2038C25.2964 37.2456 24.9361 37.0497 24.6533 36.743C24.4611 36.5343 24.4417 36.3031 24.6267 36.0776C24.7915 35.8777 25.0581 35.8528 25.294 36.0053C25.3837 36.0631 25.4653 36.1426 25.5622 36.1779C25.7205 36.2349 25.9387 36.3031 25.9904 36.0824C26.0332 35.901 26.1301 35.6192 25.7577 35.5735C25.6131 35.5558 25.4677 35.4884 25.3376 35.4169C25.0936 35.2845 24.9733 35.0822 25.0815 34.8028C25.1881 34.5283 25.4144 34.4175 25.6785 34.5138C26.2537 34.7242 26.8071 34.7073 27.3751 34.4922C27.6182 34.3999 27.8202 34.5251 27.9325 34.7523C28.0488 34.9867 27.981 35.1938 27.779 35.3487C27.615 35.4747 27.4187 35.5446 27.2183 35.5823C26.8831 35.6457 27.0228 35.9026 27.0333 36.0671C27.0479 36.2767 27.241 36.2261 27.388 36.2036C27.5342 36.1811 27.6296 36.0712 27.7475 35.9981C27.9778 35.8552 28.1983 35.8705 28.3906 36.0639C28.574 36.2494 28.5764 36.5231 28.3882 36.7302C28.1014 37.0497 27.7346 37.2062 27.2038 37.2183Z" fill="#3D4A4B"/>
<path d="M20.1866 32.9405C20.1866 32.7703 20.1736 32.5993 20.189 32.4299C20.2157 32.1377 20.4257 31.9339 20.6875 31.9467C20.9734 31.9611 21.1544 32.1233 21.1698 32.4051C21.19 32.7759 21.1883 33.1492 21.169 33.5193C21.1536 33.8066 20.9605 33.9576 20.681 33.9736C20.4233 33.9881 20.2116 33.7729 20.1874 33.4823C20.1728 33.3025 20.185 33.1211 20.185 32.9405C20.1866 32.9405 20.1866 32.9405 20.1866 32.9405Z" fill="#404C4D"/>
<path d="M32.8396 32.971C32.8396 33.1516 32.8557 33.3338 32.8363 33.5128C32.8056 33.7938 32.6287 33.9696 32.3492 33.9704C32.0729 33.9712 31.875 33.8115 31.8604 33.5217C31.8418 33.1508 31.8402 32.7775 31.8588 32.4067C31.8733 32.1241 32.0543 31.9628 32.3395 31.9467C32.6021 31.9322 32.8129 32.1361 32.8388 32.4283C32.8549 32.6073 32.842 32.7896 32.842 32.9702C32.8412 32.971 32.8404 32.971 32.8396 32.971Z" fill="#404C4D"/>
<path d="M85.672 39.2866C85.3933 38.3746 85.0767 37.4373 84.722 36.4746C84.3927 35.512 84.0633 34.5493 83.734 33.5866H73.474C73.1447 34.5493 72.8027 35.512 72.448 36.4746C72.1187 37.4373 71.8147 38.3746 71.536 39.2866H65.38C66.368 36.4493 67.3053 33.8273 68.192 31.4206C69.0787 29.014 69.94 26.7466 70.776 24.6186C71.6373 22.4906 72.4733 20.4766 73.284 18.5766C74.12 16.6513 74.9813 14.7766 75.868 12.9526H81.53C82.3913 14.7766 83.24 16.6513 84.076 18.5766C84.912 20.4766 85.748 22.4906 86.584 24.6186C87.4453 26.7466 88.3193 29.014 89.206 31.4206C90.0927 33.8273 91.03 36.4493 92.018 39.2866H85.672ZM78.566 18.9186C78.4393 19.2986 78.2493 19.818 77.996 20.4766C77.7427 21.1353 77.4513 21.8953 77.122 22.7566C76.7927 23.618 76.4253 24.568 76.02 25.6066C75.64 26.6453 75.2473 27.7346 74.842 28.8746H82.328C81.9227 27.7346 81.53 26.6453 81.15 25.6066C80.77 24.568 80.4027 23.618 80.048 22.7566C79.7187 21.8953 79.4273 21.1353 79.174 20.4766C78.9207 19.818 78.718 19.2986 78.566 18.9186ZM103.027 39.6666C101.38 39.6413 100.037 39.464 98.9987 39.1346C97.9854 38.8053 97.1747 38.3493 96.5667 37.7666C95.9841 37.1586 95.5787 36.4366 95.3507 35.6006C95.1481 34.7393 95.0467 33.7766 95.0467 32.7126V10.7106L100.709 9.79862V31.5726C100.709 32.0793 100.747 32.5353 100.823 32.9406C100.899 33.346 101.038 33.688 101.241 33.9666C101.469 34.2453 101.785 34.4733 102.191 34.6506C102.596 34.828 103.141 34.942 103.825 34.9926L103.027 39.6666ZM119.876 29.4446C119.876 27.6966 119.483 26.3033 118.698 25.2646C117.913 24.2006 116.747 23.6686 115.202 23.6686C114.695 23.6686 114.227 23.694 113.796 23.7446C113.365 23.77 113.011 23.808 112.732 23.8586V34.0806C113.087 34.3086 113.543 34.4986 114.1 34.6506C114.683 34.8026 115.265 34.8786 115.848 34.8786C118.533 34.8786 119.876 33.0673 119.876 29.4446ZM125.652 29.2926C125.652 30.838 125.462 32.244 125.082 33.5106C124.702 34.7773 124.145 35.8666 123.41 36.7786C122.675 37.6906 121.763 38.4 120.674 38.9066C119.585 39.4133 118.331 39.6666 116.912 39.6666C116.127 39.6666 115.392 39.5906 114.708 39.4386C114.024 39.2866 113.365 39.0713 112.732 38.7926V46.3166H107.07V19.9826C107.577 19.8306 108.159 19.6913 108.818 19.5646C109.477 19.4126 110.161 19.286 110.87 19.1846C111.605 19.0833 112.339 19.0073 113.074 18.9566C113.834 18.8806 114.556 18.8426 115.24 18.8426C116.887 18.8426 118.356 19.096 119.648 19.6026C120.94 20.084 122.029 20.7806 122.916 21.6926C123.803 22.5793 124.474 23.6686 124.93 24.9606C125.411 26.2526 125.652 27.6966 125.652 29.2926ZM137.642 35.3346C138.199 35.3346 138.731 35.322 139.238 35.2966C139.744 35.2713 140.15 35.2333 140.454 35.1826V30.8886C140.226 30.838 139.884 30.7873 139.428 30.7366C138.972 30.686 138.554 30.6606 138.174 30.6606C137.642 30.6606 137.135 30.6986 136.654 30.7746C136.198 30.8253 135.792 30.9393 135.438 31.1166C135.083 31.294 134.804 31.5346 134.602 31.8386C134.399 32.1426 134.298 32.5226 134.298 32.9786C134.298 33.8653 134.589 34.486 135.172 34.8406C135.78 35.17 136.603 35.3346 137.642 35.3346ZM137.186 18.7666C138.858 18.7666 140.251 18.9566 141.366 19.3366C142.48 19.7166 143.367 20.2613 144.026 20.9706C144.71 21.68 145.191 22.5413 145.47 23.5546C145.748 24.568 145.888 25.6953 145.888 26.9366V38.7166C145.077 38.894 143.95 39.0966 142.506 39.3246C141.062 39.578 139.314 39.7046 137.262 39.7046C135.97 39.7046 134.792 39.5906 133.728 39.3626C132.689 39.1346 131.79 38.7673 131.03 38.2606C130.27 37.7286 129.687 37.0446 129.282 36.2086C128.876 35.3726 128.674 34.3466 128.674 33.1306C128.674 31.9653 128.902 30.9773 129.358 30.1666C129.839 29.356 130.472 28.71 131.258 28.2286C132.043 27.7473 132.942 27.4053 133.956 27.2026C134.969 26.9746 136.02 26.8606 137.11 26.8606C137.844 26.8606 138.49 26.8986 139.048 26.9746C139.63 27.0253 140.099 27.1013 140.454 27.2026V26.6706C140.454 25.708 140.162 24.9353 139.58 24.3526C138.997 23.77 137.984 23.4786 136.54 23.4786C135.577 23.4786 134.627 23.5546 133.69 23.7066C132.752 23.8333 131.942 24.0233 131.258 24.2766L130.536 19.7166C130.865 19.6153 131.27 19.514 131.752 19.4126C132.258 19.286 132.803 19.1846 133.386 19.1086C133.968 19.0073 134.576 18.9313 135.21 18.8806C135.868 18.8046 136.527 18.7666 137.186 18.7666ZM150.058 29.2926C150.058 27.8486 150.286 26.4933 150.742 25.2266C151.223 23.9346 151.907 22.82 152.794 21.8826C153.68 20.92 154.757 20.16 156.024 19.6026C157.29 19.0453 158.734 18.7666 160.356 18.7666C161.42 18.7666 162.395 18.868 163.282 19.0706C164.168 19.248 165.03 19.514 165.866 19.8686L164.688 24.3906C164.156 24.188 163.573 24.0106 162.94 23.8586C162.306 23.7066 161.597 23.6306 160.812 23.6306C159.14 23.6306 157.886 24.15 157.05 25.1886C156.239 26.2273 155.834 27.5953 155.834 29.2926C155.834 31.0913 156.214 32.4846 156.974 33.4726C157.759 34.4606 159.114 34.9546 161.04 34.9546C161.724 34.9546 162.458 34.8913 163.244 34.7646C164.029 34.638 164.751 34.4353 165.41 34.1566L166.208 38.7926C165.549 39.0713 164.726 39.312 163.738 39.5146C162.75 39.7173 161.66 39.8186 160.47 39.8186C158.646 39.8186 157.075 39.5526 155.758 39.0206C154.44 38.4633 153.351 37.716 152.49 36.7786C151.654 35.8413 151.033 34.7393 150.628 33.4726C150.248 32.1806 150.058 30.7873 150.058 29.2926ZM176.681 35.3346C177.238 35.3346 177.77 35.322 178.277 35.2966C178.783 35.2713 179.189 35.2333 179.493 35.1826V30.8886C179.265 30.838 178.923 30.7873 178.467 30.7366C178.011 30.686 177.593 30.6606 177.213 30.6606C176.681 30.6606 176.174 30.6986 175.693 30.7746C175.237 30.8253 174.831 30.9393 174.477 31.1166C174.122 31.294 173.843 31.5346 173.641 31.8386C173.438 32.1426 173.337 32.5226 173.337 32.9786C173.337 33.8653 173.628 34.486 174.211 34.8406C174.819 35.17 175.642 35.3346 176.681 35.3346ZM176.225 18.7666C177.897 18.7666 179.29 18.9566 180.405 19.3366C181.519 19.7166 182.406 20.2613 183.065 20.9706C183.749 21.68 184.23 22.5413 184.509 23.5546C184.787 24.568 184.927 25.6953 184.927 26.9366V38.7166C184.116 38.894 182.989 39.0966 181.545 39.3246C180.101 39.578 178.353 39.7046 176.301 39.7046C175.009 39.7046 173.831 39.5906 172.767 39.3626C171.728 39.1346 170.829 38.7673 170.069 38.2606C169.309 37.7286 168.726 37.0446 168.321 36.2086C167.915 35.3726 167.713 34.3466 167.713 33.1306C167.713 31.9653 167.941 30.9773 168.397 30.1666C168.878 29.356 169.511 28.71 170.297 28.2286C171.082 27.7473 171.981 27.4053 172.995 27.2026C174.008 26.9746 175.059 26.8606 176.149 26.8606C176.883 26.8606 177.529 26.8986 178.087 26.9746C178.669 27.0253 179.138 27.1013 179.493 27.2026V26.6706C179.493 25.708 179.201 24.9353 178.619 24.3526C178.036 23.77 177.023 23.4786 175.579 23.4786C174.616 23.4786 173.666 23.5546 172.729 23.7066C171.791 23.8333 170.981 24.0233 170.297 24.2766L169.575 19.7166C169.904 19.6153 170.309 19.514 170.791 19.4126C171.297 19.286 171.842 19.1846 172.425 19.1086C173.007 19.0073 173.615 18.9313 174.249 18.8806C174.907 18.8046 175.566 18.7666 176.225 18.7666ZM211.564 39.8186C207.282 39.8186 204.014 38.628 201.76 36.2466C199.53 33.8653 198.416 30.4833 198.416 26.1006C198.416 23.922 198.758 21.984 199.442 20.2866C200.126 18.564 201.063 17.12 202.254 15.9546C203.444 14.764 204.863 13.8646 206.51 13.2566C208.156 12.6486 209.942 12.3446 211.868 12.3446C212.982 12.3446 213.996 12.4333 214.908 12.6106C215.82 12.7626 216.618 12.9526 217.302 13.1806C217.986 13.3833 218.556 13.5986 219.012 13.8266C219.468 14.0546 219.797 14.232 220 14.3586L218.29 19.1466C217.479 18.716 216.529 18.3486 215.44 18.0446C214.376 17.7406 213.16 17.5886 211.792 17.5886C210.88 17.5886 209.98 17.7406 209.094 18.0446C208.232 18.3486 207.46 18.8426 206.776 19.5266C206.117 20.1853 205.585 21.0466 205.18 22.1106C204.774 23.1746 204.572 24.4666 204.572 25.9866C204.572 27.2026 204.698 28.3426 204.952 29.4066C205.23 30.4453 205.661 31.3446 206.244 32.1046C206.852 32.8646 207.637 33.4726 208.6 33.9286C209.562 34.3593 210.728 34.5746 212.096 34.5746C212.957 34.5746 213.73 34.524 214.414 34.4226C215.098 34.3213 215.706 34.2073 216.238 34.0806C216.77 33.9286 217.238 33.764 217.644 33.5866C218.049 33.4093 218.416 33.2446 218.746 33.0926L220.38 37.8426C219.544 38.3493 218.366 38.8053 216.846 39.2106C215.326 39.616 213.565 39.8186 211.564 39.8186ZM231.825 35.3346C232.383 35.3346 232.915 35.322 233.421 35.2966C233.928 35.2713 234.333 35.2333 234.637 35.1826V30.8886C234.409 30.838 234.067 30.7873 233.611 30.7366C233.155 30.686 232.737 30.6606 232.357 30.6606C231.825 30.6606 231.319 30.6986 230.837 30.7746C230.381 30.8253 229.976 30.9393 229.621 31.1166C229.267 31.294 228.988 31.5346 228.785 31.8386C228.583 32.1426 228.481 32.5226 228.481 32.9786C228.481 33.8653 228.773 34.486 229.355 34.8406C229.963 35.17 230.787 35.3346 231.825 35.3346ZM231.369 18.7666C233.041 18.7666 234.435 18.9566 235.549 19.3366C236.664 19.7166 237.551 20.2613 238.209 20.9706C238.893 21.68 239.375 22.5413 239.653 23.5546C239.932 24.568 240.071 25.6953 240.071 26.9366V38.7166C239.261 38.894 238.133 39.0966 236.689 39.3246C235.245 39.578 233.497 39.7046 231.445 39.7046C230.153 39.7046 228.975 39.5906 227.911 39.3626C226.873 39.1346 225.973 38.7673 225.213 38.2606C224.453 37.7286 223.871 37.0446 223.465 36.2086C223.06 35.3726 222.857 34.3466 222.857 33.1306C222.857 31.9653 223.085 30.9773 223.541 30.1666C224.023 29.356 224.656 28.71 225.441 28.2286C226.227 27.7473 227.126 27.4053 228.139 27.2026C229.153 26.9746 230.204 26.8606 231.293 26.8606C232.028 26.8606 232.674 26.8986 233.231 26.9746C233.814 27.0253 234.283 27.1013 234.637 27.2026V26.6706C234.637 25.708 234.346 24.9353 233.763 24.3526C233.181 23.77 232.167 23.4786 230.723 23.4786C229.761 23.4786 228.811 23.5546 227.873 23.7066C226.936 23.8333 226.125 24.0233 225.441 24.2766L224.719 19.7166C225.049 19.6153 225.454 19.514 225.935 19.4126C226.442 19.286 226.987 19.1846 227.569 19.1086C228.152 19.0073 228.76 18.9313 229.393 18.8806C230.052 18.8046 230.711 18.7666 231.369 18.7666ZM253.171 39.6666C251.525 39.6413 250.182 39.464 249.143 39.1346C248.13 38.8053 247.319 38.3493 246.711 37.7666C246.129 37.1586 245.723 36.4366 245.495 35.6006C245.293 34.7393 245.191 33.7766 245.191 32.7126V10.7106L250.853 9.79862V31.5726C250.853 32.0793 250.891 32.5353 250.967 32.9406C251.043 33.346 251.183 33.688 251.385 33.9666C251.613 34.2453 251.93 34.4733 252.335 34.6506C252.741 34.828 253.285 34.942 253.969 34.9926L253.171 39.6666ZM256.265 29.4446C256.265 27.6713 256.531 26.126 257.063 24.8086C257.62 23.466 258.342 22.3513 259.229 21.4646C260.115 20.578 261.129 19.9066 262.269 19.4506C263.434 18.9946 264.625 18.7666 265.841 18.7666C268.678 18.7666 270.92 19.6406 272.567 21.3886C274.213 23.1113 275.037 25.6573 275.037 29.0266C275.037 29.356 275.024 29.7233 274.999 30.1286C274.973 30.5086 274.948 30.8506 274.923 31.1546H262.079C262.205 32.32 262.75 33.2446 263.713 33.9286C264.675 34.6126 265.967 34.9546 267.589 34.9546C268.627 34.9546 269.641 34.866 270.629 34.6886C271.642 34.486 272.465 34.2453 273.099 33.9666L273.859 38.5646C273.555 38.7166 273.149 38.8686 272.643 39.0206C272.136 39.1726 271.566 39.2993 270.933 39.4006C270.325 39.5273 269.666 39.6286 268.957 39.7046C268.247 39.7806 267.538 39.8186 266.829 39.8186C265.03 39.8186 263.459 39.5526 262.117 39.0206C260.799 38.4886 259.697 37.7666 258.811 36.8546C257.949 35.9173 257.303 34.8153 256.873 33.5486C256.467 32.282 256.265 30.914 256.265 29.4446ZM269.565 27.2786C269.539 26.7973 269.451 26.3286 269.299 25.8726C269.172 25.4166 268.957 25.0113 268.653 24.6566C268.374 24.302 268.007 24.0106 267.551 23.7826C267.12 23.5546 266.575 23.4406 265.917 23.4406C265.283 23.4406 264.739 23.5546 264.283 23.7826C263.827 23.9853 263.447 24.264 263.143 24.6186C262.839 24.9733 262.598 25.3913 262.421 25.8726C262.269 26.3286 262.155 26.7973 262.079 27.2786H269.565ZM279.406 19.9826C280.369 19.704 281.61 19.4506 283.13 19.2226C284.65 18.9693 286.246 18.8426 287.918 18.8426C289.615 18.8426 291.021 19.0706 292.136 19.5266C293.276 19.9573 294.175 20.578 294.834 21.3886C295.493 22.1993 295.961 23.162 296.24 24.2766C296.519 25.3913 296.658 26.6326 296.658 28.0006V39.2866H290.996V28.6846C290.996 26.8606 290.755 25.5686 290.274 24.8086C289.793 24.0486 288.893 23.6686 287.576 23.6686C287.171 23.6686 286.74 23.694 286.284 23.7446C285.828 23.77 285.423 23.808 285.068 23.8586V39.2866H279.406V19.9826ZM306.609 29.1406C306.609 30.8886 307.002 32.2946 307.787 33.3586C308.572 34.4226 309.738 34.9546 311.283 34.9546C311.79 34.9546 312.258 34.942 312.689 34.9166C313.12 34.866 313.474 34.8153 313.753 34.7646V24.4666C313.398 24.2386 312.93 24.0486 312.347 23.8966C311.79 23.7446 311.22 23.6686 310.637 23.6686C307.952 23.6686 306.609 25.4926 306.609 29.1406ZM319.415 38.6406C318.908 38.7926 318.326 38.9446 317.667 39.0966C317.008 39.2233 316.312 39.3373 315.577 39.4386C314.868 39.54 314.133 39.616 313.373 39.6666C312.638 39.7426 311.929 39.7806 311.245 39.7806C309.598 39.7806 308.129 39.54 306.837 39.0586C305.545 38.5773 304.456 37.8933 303.569 37.0066C302.682 36.0946 301.998 35.0053 301.517 33.7386C301.061 32.4466 300.833 31.0026 300.833 29.4066C300.833 27.7853 301.036 26.3286 301.441 25.0366C301.846 23.7193 302.429 22.6046 303.189 21.6926C303.949 20.7806 304.874 20.084 305.963 19.6026C307.078 19.1213 308.344 18.8806 309.763 18.8806C310.548 18.8806 311.245 18.9566 311.853 19.1086C312.486 19.2606 313.12 19.476 313.753 19.7546V10.7106L319.415 9.79862V38.6406ZM332.355 35.3346C332.912 35.3346 333.444 35.322 333.951 35.2966C334.457 35.2713 334.863 35.2333 335.167 35.1826V30.8886C334.939 30.838 334.597 30.7873 334.141 30.7366C333.685 30.686 333.267 30.6606 332.887 30.6606C332.355 30.6606 331.848 30.6986 331.367 30.7746C330.911 30.8253 330.505 30.9393 330.151 31.1166C329.796 31.294 329.517 31.5346 329.315 31.8386C329.112 32.1426 329.011 32.5226 329.011 32.9786C329.011 33.8653 329.302 34.486 329.885 34.8406C330.493 35.17 331.316 35.3346 332.355 35.3346ZM331.899 18.7666C333.571 18.7666 334.964 18.9566 336.079 19.3366C337.193 19.7166 338.08 20.2613 338.739 20.9706C339.423 21.68 339.904 22.5413 340.183 23.5546C340.461 24.568 340.601 25.6953 340.601 26.9366V38.7166C339.79 38.894 338.663 39.0966 337.219 39.3246C335.775 39.578 334.027 39.7046 331.975 39.7046C330.683 39.7046 329.505 39.5906 328.441 39.3626C327.402 39.1346 326.503 38.7673 325.743 38.2606C324.983 37.7286 324.4 37.0446 323.995 36.2086C323.589 35.3726 323.387 34.3466 323.387 33.1306C323.387 31.9653 323.615 30.9773 324.071 30.1666C324.552 29.356 325.185 28.71 325.971 28.2286C326.756 27.7473 327.655 27.4053 328.669 27.2026C329.682 26.9746 330.733 26.8606 331.823 26.8606C332.557 26.8606 333.203 26.8986 333.761 26.9746C334.343 27.0253 334.812 27.1013 335.167 27.2026V26.6706C335.167 25.708 334.875 24.9353 334.293 24.3526C333.71 23.77 332.697 23.4786 331.253 23.4786C330.29 23.4786 329.34 23.5546 328.403 23.7066C327.465 23.8333 326.655 24.0233 325.971 24.2766L325.249 19.7166C325.578 19.6153 325.983 19.514 326.465 19.4126C326.971 19.286 327.516 19.1846 328.099 19.1086C328.681 19.0073 329.289 18.9313 329.923 18.8806C330.581 18.8046 331.24 18.7666 331.899 18.7666ZM357.767 24.3146C357.26 24.188 356.665 24.0613 355.981 23.9346C355.297 23.7826 354.562 23.7066 353.777 23.7066C353.422 23.7066 352.991 23.7446 352.485 23.8206C352.003 23.8713 351.636 23.9346 351.383 24.0106V39.2866H345.721V20.3626C346.734 20.008 347.925 19.6786 349.293 19.3746C350.686 19.0453 352.231 18.8806 353.929 18.8806C354.233 18.8806 354.6 18.906 355.031 18.9566C355.461 18.982 355.892 19.0326 356.323 19.1086C356.753 19.1593 357.184 19.2353 357.615 19.3366C358.045 19.4126 358.413 19.514 358.717 19.6406L357.767 24.3146Z" fill="#2684FC"/>
</svg>
