<svg width="320" height="315" viewBox="0 0 320 315" fill="none" xmlns="http://www.w3.org/2000/svg">
<rect x="0.719238" y="0.60498" width="318.561" height="313.73" rx="53" fill="#2684FC"/>
<rect x="0.719238" y="68.3213" width="318.561" height="11.498" fill="#5BA3FF"/>
<circle cx="54.8466" cy="36.941" r="15.9633" fill="#FFF7F7"/>
<circle cx="265.153" cy="36.941" r="15.9633" fill="#FFF7F7"/>
<path d="M240.616 314.335C186.739 314.335 132.867 314.335 78.9898 314.335C78.7592 313.827 78.2178 313.851 77.8017 313.702C73.0341 311.959 70.1515 308.093 70.0111 303.186C69.8708 298.414 72.6982 294.275 77.3655 292.367C77.8117 292.183 78.4685 292.203 78.5336 291.336C73.2547 289.503 70.0212 285.906 70.0462 280.168C70.0763 274.474 73.4251 270.957 79.1302 268.9C73.2798 266.748 69.951 263.152 70.0512 257.328C70.1565 251.455 73.6808 248.008 79.3107 246.21C72.984 243.889 69.941 240.078 69.9961 234.818C70.0512 229.448 73.2046 225.642 79.5162 223.535C73.4653 221.742 69.8708 218.031 70.0763 211.714C70.2618 206.041 73.6608 202.663 78.9848 200.995C72.9188 197.951 70.1164 193.986 70.718 189.114C71.5502 182.374 75.7413 179.082 82.6094 178.355C81.8724 177.817 81.3912 177.483 80.935 177.124C76.5484 173.667 75.3903 167.705 78.0323 162.773C79.426 160.173 81.7672 158.728 84.1886 157.328C86.5498 156.95 88.916 156.636 91.4126 157.134C88.7305 153.827 88.2593 150.195 88.6904 146.345C89.8936 143.67 91.2672 141.144 93.9393 139.58C98.2256 137.074 102.432 137.548 106.603 139.849C106.683 139.884 106.768 139.919 106.848 139.954C106.818 139.864 106.788 139.779 106.763 139.69C105.435 136.497 105.244 133.259 106.362 129.966C106.568 129.627 106.788 129.294 106.984 128.95C110.032 123.59 116.083 121.597 121.793 124.048C123.462 124.766 124.726 126.026 126.114 127.306C126.255 119.949 128.48 115.899 133.509 114.3C140.402 112.108 145.2 114.922 148.463 121.189C149.822 114.504 153.547 110.783 159.202 110.365C162.34 110.13 165.117 111.112 167.513 113.149C169.93 115.201 171.048 117.946 171.514 121.234C175.204 114.878 179.786 112.521 185.356 113.911C190.99 115.316 193.677 119.485 193.893 127.351C195.928 125.169 198.204 123.635 201.072 123.172C206.331 122.32 210.372 124.511 213.645 129.971C214.768 133.264 214.558 136.502 213.244 139.695C213.214 139.784 213.189 139.869 213.159 139.959C213.239 139.924 213.324 139.889 213.405 139.854C217.581 137.548 221.782 137.089 226.068 139.585C228.745 141.144 230.109 143.685 231.317 146.35C231.763 150.245 231.242 153.911 228.56 157.174C231.126 156.621 233.467 156.99 235.809 157.333C236.37 157.667 236.922 158.016 237.498 158.335C242.456 161.074 244.612 166.893 242.672 172.198C241.724 174.793 239.909 176.661 237.588 178.235C245.72 180.387 248.658 183.142 249.309 189.114C249.846 193.991 247.108 197.926 241.012 201C246.351 202.653 249.74 206.036 249.936 211.709C250.152 218.036 246.532 221.722 240.501 223.535C246.407 225.503 249.51 228.81 249.891 233.632C250.412 240.228 246.948 244.148 240.767 246.205C246.898 248.601 249.68 251.754 249.921 256.741C250.222 263.052 246.823 266.828 240.581 268.93C246.562 270.783 249.951 274.379 249.946 280.277C249.941 286.25 246.422 289.802 240.551 291.615C241.509 291.964 242.06 292.168 242.612 292.372C250.387 295.266 252.518 305.229 246.647 311.032C244.928 312.726 242.742 313.448 240.616 314.335ZM159.964 246.663C163.458 246.763 166.917 246.409 170.331 245.757C176.597 244.556 182.704 242.873 187.897 238.942C190.97 236.621 193.221 233.747 193.738 229.787C194.279 225.682 195.146 224.766 199.297 223.974C203.498 223.172 207.334 221.558 210.823 219.107C223.977 209.866 225.527 192.561 213.996 181.483C206.221 174.011 196.65 172.003 186.188 173.458C178.904 174.469 172.086 177.015 165.498 180.148C161.773 181.921 158.274 181.971 154.554 180.173C149.381 177.677 144.016 175.63 138.392 174.325C127.478 171.789 117.221 172.701 107.956 179.685C98.2908 186.972 95.4132 200.327 101.514 210.718C105.816 218.041 112.358 222.285 120.635 223.934C123.372 224.482 125.763 225.304 126.049 228.541C126.55 234.285 129.944 238.006 134.712 240.661C142.548 245.03 151.105 246.524 159.964 246.663Z" fill="#C76D5C"/>
<path d="M159.963 246.663C151.105 246.524 142.547 245.029 134.717 240.666C129.949 238.011 126.555 234.29 126.054 228.546C125.773 225.308 123.382 224.486 120.64 223.938C112.358 222.29 105.816 218.046 101.519 210.723C95.4181 200.332 98.3007 186.977 107.961 179.689C117.226 172.706 127.483 171.794 138.396 174.33C144.016 175.635 149.385 177.677 154.559 180.178C158.279 181.976 161.778 181.926 165.503 180.153C172.09 177.019 178.903 174.474 186.193 173.463C196.655 172.008 206.231 174.016 214.001 181.488C225.526 192.566 223.982 209.871 210.828 219.112C207.338 221.562 203.498 223.176 199.302 223.978C195.146 224.77 194.279 225.687 193.743 229.792C193.221 233.752 190.97 236.621 187.902 238.947C182.708 242.877 176.602 244.561 170.336 245.762C166.917 246.409 163.458 246.763 159.963 246.663ZM164.275 231.51C167.568 231.435 169.844 230.459 171.629 228.486C172.797 227.196 172.782 225.498 171.644 224.352C170.451 223.146 169.077 223.052 167.654 223.943C166.927 224.397 166.335 225.079 165.423 225.219C164.51 225.358 163.312 225.672 163.222 224.372C163.152 223.346 162.285 221.757 164.37 221.363C165.613 221.129 166.832 220.696 167.849 219.914C169.103 218.952 169.524 217.662 168.802 216.212C168.105 214.808 166.852 214.031 165.343 214.599C161.818 215.933 158.379 216.038 154.815 214.733C153.181 214.135 151.772 214.823 151.11 216.526C150.438 218.255 151.185 219.515 152.699 220.337C153.511 220.775 154.409 221.199 155.306 221.308C157.612 221.592 157.016 223.341 156.75 224.466C156.424 225.836 155.07 225.413 154.093 225.059C153.486 224.84 152.985 224.347 152.429 223.988C150.965 223.042 149.31 223.191 148.288 224.437C147.135 225.836 147.26 227.276 148.453 228.566C150.208 230.464 152.444 231.684 155.015 231.425C158.329 231.092 161.603 230.115 164.275 231.51ZM120.73 204.965H120.725C120.725 206.085 120.65 207.216 120.74 208.327C120.89 210.13 122.199 211.465 123.803 211.376C125.538 211.281 126.736 210.339 126.831 208.556C126.951 206.255 126.961 203.938 126.836 201.642C126.741 199.894 125.618 198.887 123.843 198.798C122.219 198.718 120.915 199.983 120.75 201.797C120.655 202.843 120.73 203.909 120.73 204.965ZM199.247 205.154C199.252 205.154 199.257 205.154 199.262 205.154C199.262 204.033 199.342 202.902 199.242 201.792C199.082 199.978 197.773 198.718 196.144 198.803C194.374 198.897 193.251 199.899 193.161 201.657C193.046 203.958 193.056 206.275 193.171 208.576C193.261 210.374 194.485 211.366 196.204 211.361C197.939 211.356 199.037 210.265 199.227 208.521C199.347 207.405 199.247 206.275 199.247 205.154Z" fill="#FAC3AB"/>
<path d="M81.7773 123.117C83.7074 122.903 85.467 123.54 87.2266 124.188C93.4932 126.489 99.7597 128.775 106.362 129.971C105.244 133.264 105.435 136.502 106.763 139.695C106.708 139.749 106.658 139.799 106.603 139.854C102.432 137.548 98.2257 137.079 93.9394 139.585C91.2673 141.149 89.8937 143.68 88.6905 146.35C88.3446 145.787 88.0639 145.169 87.6377 144.676C85.2063 141.866 83.567 138.658 82.5543 135.112C81.4364 131.162 81.4414 127.152 81.7773 123.117Z" fill="#FAC3AB"/>
<path d="M213.64 129.971C220.242 128.775 226.514 126.489 232.776 124.188C234.535 123.54 236.295 122.903 238.225 123.117C238.225 123.844 238.175 124.576 238.24 125.299C238.806 131.5 237.493 137.229 234.079 142.489C233.212 143.824 231.858 144.8 231.312 146.345C230.104 143.675 228.74 141.139 226.063 139.58C221.777 137.084 217.57 137.543 213.399 139.849C213.344 139.794 213.294 139.744 213.239 139.695C214.552 136.502 214.763 133.264 213.64 129.971Z" fill="#FAC3AB"/>
<path d="M231.312 146.349C231.858 144.8 233.217 143.829 234.079 142.494C237.493 137.229 238.807 131.5 238.24 125.303C238.175 124.581 238.225 123.849 238.225 123.122C242.135 123.53 245.203 125.871 246.005 129.528C248.312 140.088 245.108 150.569 236.16 157.154C236.054 157.229 235.924 157.274 235.804 157.333C233.462 156.995 231.116 156.621 228.554 157.174C231.237 153.906 231.758 150.24 231.312 146.349Z" fill="#E2B098"/>
<path d="M81.7771 123.117C81.4412 127.152 81.4362 131.157 82.5591 135.102C83.5718 138.653 85.2111 141.861 87.6426 144.666C88.0687 145.159 88.3494 145.782 88.6953 146.34C88.2642 150.19 88.7354 153.822 91.4175 157.134C88.9209 156.636 86.5547 156.95 84.1935 157.328C77.586 152.686 74.0667 146.285 73.405 138.335C73.1794 135.64 73.2345 132.92 73.786 130.24C74.6082 126.245 77.6061 123.55 81.7771 123.117Z" fill="#E2B098"/>
<path d="M106.763 139.694C106.793 139.784 106.823 139.869 106.848 139.958C106.768 139.923 106.683 139.889 106.603 139.854C106.658 139.799 106.713 139.744 106.763 139.694Z" fill="#FAC3AB"/>
<path d="M213.399 139.849C213.319 139.884 213.234 139.919 213.154 139.953C213.184 139.869 213.214 139.779 213.239 139.689C213.294 139.744 213.344 139.799 213.399 139.849Z" fill="#FAC3AB"/>
<path d="M164.275 231.51C161.603 230.115 158.329 231.087 155.01 231.421C152.439 231.68 150.203 230.464 148.448 228.561C147.255 227.266 147.135 225.831 148.283 224.432C149.305 223.191 150.96 223.037 152.424 223.983C152.98 224.342 153.486 224.835 154.088 225.054C155.071 225.408 156.424 225.831 156.745 224.462C157.011 223.336 157.612 221.587 155.301 221.303C154.404 221.194 153.501 220.775 152.694 220.332C151.18 219.51 150.433 218.255 151.105 216.521C151.767 214.818 153.171 214.13 154.81 214.728C158.379 216.033 161.813 215.929 165.338 214.594C166.847 214.021 168.1 214.798 168.797 216.208C169.519 217.662 169.098 218.947 167.844 219.909C166.827 220.691 165.608 221.124 164.365 221.358C162.285 221.752 163.152 223.346 163.217 224.367C163.307 225.667 164.505 225.353 165.418 225.214C166.325 225.074 166.917 224.392 167.649 223.939C169.077 223.052 170.446 223.147 171.639 224.347C172.777 225.498 172.792 227.196 171.624 228.482C169.845 230.464 167.569 231.435 164.275 231.51Z" fill="#3D4A4B"/>
<path d="M120.73 204.965C120.73 203.909 120.65 202.848 120.745 201.797C120.911 199.983 122.214 198.718 123.838 198.798C125.613 198.887 126.736 199.894 126.831 201.642C126.957 203.943 126.946 206.26 126.826 208.556C126.731 210.339 125.533 211.276 123.798 211.376C122.199 211.465 120.885 210.13 120.735 208.327C120.645 207.211 120.72 206.085 120.72 204.965C120.73 204.965 120.73 204.965 120.73 204.965Z" fill="#404C4D"/>
<path d="M199.247 205.154C199.247 206.275 199.348 207.405 199.227 208.516C199.037 210.26 197.939 211.351 196.204 211.356C194.49 211.361 193.261 210.369 193.171 208.571C193.056 206.27 193.046 203.953 193.161 201.652C193.251 199.899 194.374 198.897 196.144 198.798C197.773 198.708 199.082 199.973 199.242 201.786C199.343 202.897 199.262 204.028 199.262 205.149C199.257 205.154 199.252 205.154 199.247 205.154Z" fill="#404C4D"/>
</svg>
